<svg xmlns="http://www.w3.org/2000/svg" xmlns:xlink="http://www.w3.org/1999/xlink" fill="none" version="1.1" width="100" height="100" viewBox="0 0 100 100"><defs><clipPath id="master_svg0_47_50"><rect x="0" y="0" width="100" height="100" rx="0"/></clipPath></defs><g clip-path="url(#master_svg0_47_50)"><g style="mix-blend-mode:passthrough"><g><path d="M20.66667475164795,54.2872C20.40000515164795,54.6146,20.13333675164795,56.0506,21.73334075164795,57.7135L47.86669075164795,79.979C48.20679075164795,80.3323,48.606690751647946,80.5852,49.02669075164795,80.7515C49.44329075164795,80.9456,49.89669075164795,81.0633,50.38339075164795,81.0633C50.49999075164795,81.0633,50.59999075164795,81.0044,50.716690751647945,80.994C51.57999075164795,81.0009,52.44669075164795,80.6683,53.11009075164795,79.9755L79.33339075164795,57.1592C80.57989075164795,55.8605,80.41659075164796,55.5235,79.93089075164795,54.5207C79.91009075164794,54.4776,79.88859075164794,54.4334,79.86669075164795,54.3877C79.59999075164795,53.8334,79.43529075164795,53.5068,79.18669075164794,53.4177C78.79999075164795,53.2791,78.69329075164795,53.2791,78.26669075164796,53.2791C77.41339075164795,53.2791,76.55349075164796,53.6222,75.90339075164795,54.3012L52.13329075164795,74.4925L52.13329075164795,14.46426C52.13329075164795,12.54851,51.92509075164795,11,50.08499075164795,11C48.24499075164795,11,47.86669075164795,12.54851,47.86669075164795,14.46426L47.86669075164795,74.4925L24.93334075164795,54.2872C24.28002075164795,53.6151,23.33334075164795,53.2756,22.57667075164795,53.2756C21.733330751647948,53.2791,21.20000275164795,53.2791,20.66667475164795,54.2872Z" fill="#000000" fill-opacity="0.800000011920929"/></g><g><path d="M90,89.78280921386718C90,91.69520921386719,88.6852,91.99999921386718,86.8419,91.99999921386718L13.50856,91.99999921386718C11.66849,91.99999921386718,10,91.69520921386719,10,89.78280921386718C10,87.87041021386719,11.66849,86.87406921386719,13.50856,86.87406921386719L86.8419,86.87406921386719C88.6852,86.87406921386719,90,87.87041021386719,90,89.78280921386718Z" fill="#000000" fill-opacity="0.800000011920929"/></g></g></g></svg>