<svg xmlns="http://www.w3.org/2000/svg" xmlns:xlink="http://www.w3.org/1999/xlink" fill="none" version="1.1" width="100" height="100" viewBox="0 0 100 100"><defs><clipPath id="master_svg0_89_00"><rect x="0" y="0" width="100" height="100" rx="0"/></clipPath></defs><g clip-path="url(#master_svg0_89_00)"><g><path d="M10.416748046875,20.833343505859375L89.583448046875,20.833343505859375L89.583448046875,25.000013505859375L10.416748046875,25.000013505859375L10.416748046875,20.833343505859375Z" fill="#000000" fill-opacity="0.800000011920929"/></g><g><path d="M62.499951953125,12.499998247070312L62.499951953125,16.666658247070313L66.666651953125,16.666658247070313L66.666651953125,12.499998247070312C66.666651953125,10.197908247070313,64.802051953125,8.333330154420313,62.512451953125,8.333330154420313L37.487451953125,8.333330154420313C35.187311953125,8.331006047070312,33.324047093125,10.199878247070313,33.333286285425,12.499998247070312L33.333286285425,16.666658247070313L37.499951953125,16.666658247070313L37.499951953125,12.499998247070312L62.499951953125,12.499998247070312Z" fill="#000000" fill-opacity="0.800000011920929"/></g><g><path d="M20.833418046875,87.5L20.833418046875,25L16.666748046875,25L16.666748046875,87.4958C16.666748046875,89.8,18.520918046875,91.6667,20.837578046875,91.6667L79.162548046875,91.6667C81.466748046875,91.6667,83.333448046875,89.8125,83.333448046875,87.4958L83.333448046875,25L79.166748046875,25L79.166748046875,87.5L20.833418046875,87.5Z" fill="#000000" fill-opacity="0.800000011920929"/></g><g><path d="M31.25,33.33332824707031L35.416669999999996,33.33332824707031L35.416669999999996,70.83332824707031L31.25000190735,70.83332824707031L31.25,33.33332824707031ZM47.9167,33.33332824707031L52.0833,33.33332824707031L52.0833,70.83332824707031L47.9167,70.83332824707031L47.9167,33.33332824707031ZM64.58330000000001,33.33332824707031L68.75,33.33332824707031L68.75,70.83332824707031L64.58330000000001,70.83332824707031L64.58330000000001,33.33332824707031Z" fill="#000000" fill-opacity="0.800000011920929"/></g></g></svg>