<svg xmlns="http://www.w3.org/2000/svg" xmlns:xlink="http://www.w3.org/1999/xlink" fill="none" version="1.1" width="100" height="100" viewBox="0 0 100 100"><defs><clipPath id="master_svg0_47_36"><rect x="0" y="0" width="100" height="100" rx="0"/></clipPath></defs><g clip-path="url(#master_svg0_47_36)"><g><path d="M13.996970000000001,90C12.980319999999999,90,11.96566,89.6023,11.1847,88.8208C9.77058,87.4017,9.602803,85.2231,10.78723,83.6381L27.4211,61.1127L14.384450000000001,48.0671C13.11214,46.7939,12.860479999999999,44.8032,13.77127,43.2242C14.39444,42.2388,19.75931,34.4099,31.6875,37.364000000000004C31.8852,37.388000000000005,32.0989,37.406,32.3286,37.426C32.818,37.4679,33.3652,37.5179,33.9584,37.6138C36.4831,38.0236,40.947199999999995,35.9949,44.822,32.689C48.5351,29.5251,50.9339,25.833399999999997,50.9339,23.287100000000002C50.9339,22.6955,50.9199,22.0659,50.9059,21.4483C50.8061,19.05581,50.6543,15.37819,53.4026,12.62996C56.6543,9.372063,61.7995,9.110232,65.36869999999999,12.01636C65.4406,12.07432,65.5065,12.13628,65.5704,12.20224L65.5685,12.20224C67.4879,14.081019999999999,87.1638,33.750299999999996,87.3695,33.958200000000005C89.0632,35.653099999999995,89.996,37.9056,90,40.3001C90.002,42.6965,89.0712,44.9451,87.3815,46.636C84.6471,49.3742,80.952,49.2183,78.5153,49.1144C77.938,49.1024,77.3069,49.0884,76.7176,49.0884C74.3108,49.0884,71.4327,50.7753,68.62039999999999,53.8354C64.6537,58.1526,62.2109,63.729,62.4206,66.2274C62.5085,67.02879999999999,62.6723,68.4439,62.7023,68.6438C65.5824,80.3323,57.7748,85.6628,56.876,86.2304C55.2601,87.2058,53.2568,86.964,51.9565,85.6648L38.028999999999996,71.7278C37.2481,70.94630000000001,37.2481,69.6831,38.028999999999996,68.9016C38.81,68.12010000000001,40.0723,68.12010000000001,40.853300000000004,68.9016L54.7808,82.8386C55.394,82.4409,61.0345,78.5694,58.7875,69.41929999999999C58.7475,69.2354,58.5498,67.57849999999999,58.4459,66.6091C58.1104,62.6157,61.2242,55.982,65.6823,51.1311C68.2149,48.3769,72.1837,45.093,76.7176,45.093C77.3348,45.093,77.9979,45.107,78.6431,45.121C81.1737,45.2269,83.1751,45.1969,84.5592,43.8098C85.494,42.8744,86.0073,41.6312,86.0073,40.3061C86.0053,38.9769,85.486,37.7277,84.5472,36.7864C84.3415,36.5805,63.3893,15.64401,62.7722,15.0504C60.8767,13.50939,58.0325,13.6533,56.2309,15.45813C54.8327,16.85723,54.8008,18.85594,54.9026,21.3243C54.9186,22.0119,54.9326,22.6715,54.9326,23.289099999999998C54.9326,27.0686,52.1223,31.7216,47.4166,35.733000000000004C43.5537,39.0249,37.8153,42.2808,33.3253,41.5613C32.8339,41.481300000000005,32.3845,41.4434,31.9831,41.409400000000005C31.7234,41.3874,31.4817,41.3654,31.256,41.3374C31.0643,41.3314,30.8765,41.2954,30.6948,41.2355C21.500999999999998,38.967,17.61017,44.6293,17.19671,45.2829L31.4638,59.5037C32.162800000000004,60.2032,32.246700000000004,61.3085,31.6575,62.106L13.99497,86.0246L32.6242,72.3894C33.516999999999996,71.7358,34.7654,71.9357,35.414500000000004,72.8271C36.0637,73.7185,35.8679,74.9677,34.9771,75.6173L16.33186,89.2205C15.63279,89.7422,14.81588,90,13.996970000000001,90Z" fill="#000000" fill-opacity="0.800000011920929"/></g></g></svg>