<svg xmlns="http://www.w3.org/2000/svg" xmlns:xlink="http://www.w3.org/1999/xlink" fill="none" version="1.1" width="100" height="100" viewBox="0 0 100 100"><g style="mix-blend-mode:passthrough"><g><path d="M89.907,87.4765C89.7763,87.0955,89.7763,87.0955,89.6735,86.9165C89.5834,86.7616,89.4805,86.6191,89.3507,86.4573C89.1712,86.2334,88.9204,85.9507,88.589,85.5953C88.0074,84.9715,87.1596,84.1052,86.0361,82.9832C84.2795,81.2292,82.5198,79.5066,78.2456,75.3431C74.0132,71.22030000000001,72.23769999999999,69.4821,70.4967,67.7432C69.4051,66.65299999999999,68.5858,65.81569999999999,68.04339999999999,65.2339C67.774,64.94489999999999,67.5804,64.7267,67.4755,64.596C67.5453,64.7218,67.5453,64.7218,67.6557,65.0327C67.8277,65.6182,67.8277,65.6182,67.0878,66.9667C73.7924,60.7747,77.6629,52.1865,77.6629,43C77.6629,24.7746,62.516,10,43.8314,10C25.146900000000002,10,10,24.7746,10,43C10,61.2254,25.146900000000002,76,43.8314,76C44.241,76,44.6649,75.9816,45.1371,75.9467C45.4745,75.9218,45.7674,75.8949,46.3031,75.8419C47.388,75.7348,47.783,75.7043,48.2389,75.7043C49.0133,75.7043,50.2417,75.4412,52.0699,74.9554C52.2843,74.8985,52.5043,74.839,52.7291,74.7772C53.422,74.5869,54.1305,74.3835,54.8177,74.1801C55.2305,74.058,55.5456,73.96260000000001,55.7255,73.90729999999999C56.8055,73.5749,57.4047,72.4516,57.064,71.3982C56.7232,70.34479999999999,55.5716,69.7603,54.4917,70.09270000000001C54.3254,70.1438,54.0245,70.23490000000001,53.6273,70.3524C52.9645,70.54849999999999,52.2815,70.74459999999999,51.6174,70.92699999999999C51.4036,70.98570000000001,51.1949,71.04220000000001,50.9921,71.0961C49.5872,71.4693,48.4903,71.7043,48.2389,71.7043C47.5917,71.7043,47.124,71.7404,45.89,71.8623C45.3872,71.912,45.1202,71.9365,44.8273,71.9581C44.4511,71.9859,44.1272,72,43.8314,72C27.4117,72,14.10078,59.0162,14.10078,43C14.10078,26.9837,27.4117,14,43.8314,14C60.2512,14,73.5621,26.9837,73.5621,43C73.5621,51.0762,70.16329999999999,58.6179,64.2684,64.0621C63.5139,65.4346,63.5139,65.4346,63.6938,66.0646C63.8233,66.43010000000001,63.8233,66.43010000000001,63.9246,66.6055C64.0144,66.7587,64.1171,66.9005,64.24629999999999,67.0615C64.4264,67.286,64.67779999999999,67.5692,65.0094,67.925C65.592,68.5498,66.44,69.4166,67.5629,70.5381C69.32079999999999,72.2937,71.10159999999999,74.0372,75.3464,78.172C79.6082,82.3234,81.3628,84.041,83.1026,85.7783C84.1947,86.8689,85.0138,87.7058,85.5553,88.2866C85.824,88.5748,86.0167,88.7921,86.1204,88.9214C86.0439,88.7845,86.0439,88.7845,85.9314,88.457C85.7625,87.826,85.7625,87.826,86.5911,86.4726C85.7263,87.1858,85.6179,88.4477,86.349,89.2912C87.0801,90.1347,88.3738,90.2404,89.2386,89.5273C90.0829,88.151,90.0829,88.151,89.907,87.4765Z" fill="#000000" fill-opacity="0.800000011920929"/></g></g></svg>