<svg xmlns="http://www.w3.org/2000/svg" xmlns:xlink="http://www.w3.org/1999/xlink" fill="none" version="1.1" width="100" height="100" viewBox="0 0 100 100"><defs><clipPath id="master_svg0_47_0337"><rect x="0" y="0" width="100" height="100" rx="0"/></clipPath></defs><g clip-path="url(#master_svg0_47_0337)"><g><path d="M83.99997797698974,74C80.99997797698974,72,79.02837797698974,68.16040000000001,76.99997797698975,64L76.99997797698975,44.1214C76.99997797698975,30.9752,73.19377797698974,18,51.99997797698975,18L51.99997797698975,12.99946C51.83667797698975,11.461030000000001,51.702577976989744,10,49.993877976989744,10C48.16467797698974,10,47.99997797698975,11.34286,47.99997797698975,12.99946L47.99997797698975,18C29.999977976989747,18,23.000017976989746,30.3196,23.000017976989746,44.1236L23.000017976989746,64C21.030577976989747,67.3017,18.948237976989745,72.4752,16.000027976989745,74Q13.172292476989746,75.095,13.207798480989746,77.993L37.99997797698975,77.993C38.54107797698975,84.3882,44.39687797698974,88,49.99997797698975,88C55.603077976989745,88,61.39647797698974,85.1516,61.99997797698975,77.993L86.68147797698974,77.993Q86.95287797698974,75.5248,83.99997797698974,74ZM46.99997797698975,22C34.54107797698975,22.3001,27.027877976989746,32.772999999999996,27.027877976989746,44.1236L27.027877976989746,63.7926Q27.210577976989747,64.5464,27.027877976989746,64.9796Q25.525377976989745,68.5427,21.841677976989747,74L78.99997797698974,74C77.20907797698975,71.9606,74.64307797698974,67.58789999999999,73.44877797698975,64.9796C73.27957797698974,64.6146,73.19387797698974,64.39529999999999,73.19387797698974,64L73.19377797698974,44.1214C73.19377797698974,39.686,74.78307797698974,23.597,52.99997797698975,22L49.993877976989744,22L46.99997797698975,22ZM42.34007797698975,77.993C42.943577976989744,81.8207,45.49997797698975,84,49.99997797698975,84C54.49997797698975,84,56.99997797698975,81.5,57.652277976989744,77.993L42.34007797698975,77.993Z" fill-rule="evenodd" fill="#000000" fill-opacity="0.800000011920929"/></g><g style="mix-blend-mode:passthrough"><path d="M16,82L19,85L79,21L76,18L16,82Z" fill="#000000" fill-opacity="0.800000011920929"/></g></g></svg>