<svg xmlns="http://www.w3.org/2000/svg" xmlns:xlink="http://www.w3.org/1999/xlink" fill="none" version="1.1" width="100" height="100" viewBox="0 0 100 100"><defs><clipPath id="master_svg0_0_6"><rect x="0" y="0" width="100" height="100" rx="0"/></clipPath></defs><g style="mix-blend-mode:passthrough" clip-path="url(#master_svg0_0_6)"><g style="mix-blend-mode:passthrough"><g style="mix-blend-mode:passthrough"><path d="M30.999999046325684,41C30.999999046325684,41,68.99999904632568,41,68.99999904632568,41C68.99999904632568,41,68.99999904632568,46,68.99999904632568,46C68.99999904632568,46,30.999999046325684,46,30.999999046325684,46C30.999999046325684,46,30.999999046325684,41,30.999999046325684,41C30.999999046325684,41,30.999999046325684,41,30.999999046325684,41ZM30.999999046325684,57C30.999999046325684,57,68.99999904632568,57,68.99999904632568,57C68.99999904632568,57,68.99999904632568,61,68.99999904632568,61C68.99999904632568,61,30.999999046325684,61,30.999999046325684,61C30.999999046325684,61,30.999999046325684,57,30.999999046325684,57C30.999999046325684,57,30.999999046325684,57,30.999999046325684,57Z" fill="#000000" fill-opacity="0.800000011920929"/></g><g style="mix-blend-mode:passthrough"><path d="M36.66669904632568,81C36.66669904632568,81,18.888889046325684,81,18.888889046325684,81C13.970369046325683,81,11.999999999999684,76.512,11.999999999999684,71.2C11.999999999999684,71.2,11.999999999999684,33,11.999999999999684,33C11.999999999999684,27.688,14.081479046325683,26,18.999999046325684,26C18.999999046325684,26,72.99999904632568,26,72.99999904632568,26C72.99999904632568,26,72.99999904632568,30,72.99999904632568,30C72.99999904632568,30,18.999999046325684,30,18.999999046325684,30C17.340739046325684,30,15.999999046325684,31.208,15.999999046325684,33C15.999999046325684,33,15.925929046325685,71.2,15.925929046325685,71.2C15.925929046325685,72.928,17.340739046325684,77,18.999999046325684,77C18.999999046325684,77,36.66669904632568,77,36.66669904632568,77C36.66669904632568,77,36.66669904632568,81,36.66669904632568,81C36.66669904632568,81,36.66669904632568,81,36.66669904632568,81ZM38.977799046325686,100C38.977799046325686,100,36.66669904632568,96.5,36.66669904632568,96.5C36.66669904632568,96.5,62.499999046325684,77,62.499999046325684,77C62.499999046325684,77,78.14809904632568,77,78.14809904632568,77C79.80739904632568,77,82.99999904632568,72.99199999999999,82.99999904632568,71.2C82.99999904632568,71.2,82.99999904632568,42.4,82.99999904632568,42.4C82.99999904632568,42.4,87.03699904632569,42.4,87.03699904632569,42.4C87.03699904632569,42.4,87.03699904632569,71.2,87.03699904632569,71.2C87.03699904632569,76.512,83.06669904632568,81,78.14809904632568,81C78.14809904632568,81,63.999999046325684,81,63.999999046325684,81C63.999999046325684,81,38.977799046325686,100,38.977799046325686,100C38.977799046325686,100,38.977799046325686,100,38.977799046325686,100C38.977799046325686,100,38.977799046325686,100,38.977799046325686,100Z" fill="#000000" fill-opacity="0.800000011920929"/></g><g style="mix-blend-mode:passthrough"><path d="M80.99999904632568,29C80.99999904632568,31,82.99999904632568,33,84.99999904632568,33C86.99999904632568,33,88.99999904632568,31,88.99999904632568,29C88.99999904632568,27,86.99999904632568,25,84.99999904632568,25C82.99999904632568,25,80.99999904632568,27,80.99999904632568,29Z" fill="#000000" fill-opacity="0.800000011920929"/></g></g></g></svg>