<svg width="196" height="196" viewBox="0 0 196 196" fill="none" xmlns="http://www.w3.org/2000/svg">
<g clip-path="url(#clip0_520_4969)">
<path d="M98 195.784C152.124 195.784 196 151.956 196 97.892C196 43.8277 152.124 0 98 0C43.8761 0 0 43.8277 0 97.892C0 151.956 43.8761 195.784 98 195.784Z" fill="#1C98F7"/>
<g filter="url(#filter0_d_520_4969)">
<path fill-rule="evenodd" clip-rule="evenodd" d="M99.965 129.94C104.275 129.64 108.548 128.944 112.729 127.859C117.89 129.432 123.345 129.788 128.667 128.899C128.877 128.865 129.09 128.849 129.304 128.85C131.202 128.85 133.695 129.952 137.327 132.277V128.453C137.328 127.791 137.505 127.142 137.84 126.571C138.174 126 138.655 125.528 139.232 125.204C140.813 124.311 142.283 123.283 143.624 122.151C148.916 117.672 151.905 111.701 151.905 105.375C151.905 103.252 151.568 101.19 150.931 99.2198C152.53 96.2402 153.822 93.1077 154.771 89.8589C157.841 94.4537 159.486 99.8508 159.5 105.375C159.5 113.971 155.494 121.986 148.567 127.847C147.411 128.825 146.193 129.728 144.922 130.551V139.49C144.922 142.568 141.37 144.336 138.865 142.506C136.496 140.738 134.043 139.084 131.515 137.551C130.791 137.118 130.038 136.735 129.261 136.407C127.178 136.719 125.047 136.878 122.897 136.878C114.248 136.878 106.261 134.29 99.9711 129.94H99.965ZM54.2358 112.062C43.3088 102.805 37 90.1954 37 76.6802C37 49.0685 63.0802 27 94.9241 27C126.774 27 152.854 49.0685 152.854 76.6802C152.854 104.298 126.768 126.366 94.9241 126.366C91.3471 126.366 87.8069 126.091 84.3401 125.54C82.8395 125.895 76.8431 129.456 68.2007 135.758C65.0709 138.046 60.6302 135.838 60.6302 131.989V116.742C58.3922 115.333 56.2555 113.769 54.2358 112.062ZM84.5484 116.137C84.8117 116.137 85.0812 116.155 85.3446 116.198C88.4684 116.724 91.6779 116.993 94.9241 116.993C121.825 116.993 143.354 98.7732 143.354 76.6802C143.354 54.5933 121.825 36.3732 94.9241 36.3732C68.0354 36.3732 46.4938 54.5933 46.4938 76.6802C46.4938 87.3626 51.5224 97.421 60.4159 104.946C62.6515 106.831 65.1076 108.544 67.7414 110.037C69.2175 110.869 70.1301 112.423 70.1301 114.099V122.891C76.9656 118.309 81.4614 116.137 84.5484 116.137ZM70.2342 86.0594C66.0386 86.0594 62.6392 82.6944 62.6392 78.5585C62.6392 74.4164 66.0386 71.0575 70.2342 71.0575C74.4299 71.0575 77.8293 74.4164 77.8293 78.5585C77.8293 82.7005 74.4299 86.0594 70.2342 86.0594ZM94.9241 86.0594C90.7285 86.0594 87.3291 82.6944 87.3291 78.5585C87.3291 74.4164 90.7285 71.0575 94.9241 71.0575C99.1197 71.0575 102.519 74.4164 102.519 78.5585C102.519 82.7005 99.1197 86.0594 94.9241 86.0594ZM119.614 86.0594C115.418 86.0594 112.019 82.6944 112.019 78.5585C112.019 74.4164 115.418 71.0575 119.614 71.0575C123.81 71.0575 127.209 74.4164 127.209 78.5585C127.209 82.7005 123.81 86.0594 119.614 86.0594Z" fill="url(#paint0_linear_520_4969)" shape-rendering="crispEdges"/>
</g>
<path d="M82.56 172.376C82.8693 172.344 83.0827 172.264 83.2 172.136C83.328 172.008 83.392 171.795 83.392 171.496V162.984C83.392 162.696 83.344 162.488 83.248 162.36C83.1627 162.221 83.0133 162.152 82.8 162.152H82.464L82.4 162.104L82.464 161.592C82.7093 161.56 82.976 161.517 83.264 161.464C83.5627 161.411 83.8507 161.357 84.128 161.304C84.4053 161.24 84.64 161.181 84.832 161.128L84.928 161.336C84.8853 161.411 84.8373 161.693 84.784 162.184C84.7307 162.675 84.6827 163.32 84.64 164.12C84.608 164.92 84.576 165.821 84.544 166.824C84.6187 166.771 84.752 166.68 84.944 166.552C85.1467 166.413 85.3707 166.269 85.616 166.12C85.872 165.971 86.1173 165.843 86.352 165.736C86.5973 165.629 86.7947 165.576 86.944 165.576C87.6373 165.576 88.176 165.757 88.56 166.12C88.944 166.472 89.136 166.979 89.136 167.64C89.136 167.779 89.12 168.008 89.088 168.328C89.0667 168.648 89.04 169.005 89.008 169.4C88.976 169.795 88.944 170.173 88.912 170.536C88.8907 170.899 88.88 171.197 88.88 171.432C88.88 171.741 88.9227 171.971 89.008 172.12C89.0933 172.259 89.2373 172.328 89.44 172.328C89.504 172.328 89.5893 172.328 89.696 172.328C89.8133 172.317 89.9147 172.307 90 172.296L90.032 172.36L89.904 173.048C89.7333 173.037 89.504 173.027 89.216 173.016C88.9387 173.005 88.6933 173 88.48 173C88.352 173 88.1973 173.005 88.016 173.016C87.8347 173.037 87.6427 173.059 87.44 173.08C87.2373 173.112 87.0347 173.149 86.832 173.192L86.896 172.536C87.216 172.451 87.4453 172.328 87.584 172.168C87.7227 171.997 87.792 171.773 87.792 171.496L87.888 168.328C87.888 167.795 87.7707 167.384 87.536 167.096C87.312 166.808 86.9867 166.664 86.56 166.664C86.2933 166.664 85.9627 166.749 85.568 166.92C85.184 167.091 84.8373 167.299 84.528 167.544C84.5173 167.939 84.5067 168.349 84.496 168.776C84.496 169.203 84.4907 169.64 84.48 170.088C84.48 170.525 84.48 170.973 84.48 171.432C84.48 171.763 84.5227 171.997 84.608 172.136C84.704 172.264 84.8533 172.328 85.056 172.328C85.12 172.328 85.2053 172.328 85.312 172.328C85.4293 172.317 85.5307 172.307 85.616 172.296L85.648 172.36L85.504 173.048C85.3227 173.037 85.088 173.027 84.8 173.016C84.512 173.005 84.2613 173 84.048 173C83.824 173 83.5573 173 83.248 173C82.9493 173.011 82.688 173.021 82.464 173.032L82.56 172.376ZM94.4829 173.192C93.8109 173.192 93.2242 173.043 92.7229 172.744C92.2215 172.445 91.8269 172.035 91.5389 171.512C91.2615 170.979 91.1229 170.36 91.1229 169.656C91.1229 169.112 91.2135 168.595 91.3949 168.104C91.5869 167.613 91.8482 167.181 92.1789 166.808C92.5095 166.424 92.8829 166.125 93.2989 165.912C93.7255 165.688 94.1789 165.576 94.6589 165.576C96.2482 165.576 97.0429 166.349 97.0429 167.896C97.0429 168.035 97.0322 168.179 97.0109 168.328C96.9895 168.477 96.9682 168.595 96.9469 168.68L96.7389 168.872H92.3229C92.3122 169.821 92.4829 170.573 92.8349 171.128C93.1975 171.672 93.7042 171.992 94.3549 172.088C95.0055 172.173 95.7735 172.013 96.6589 171.608L96.7549 171.64L96.9309 172.104C96.7175 172.253 96.4615 172.413 96.1629 172.584C95.8749 172.755 95.5815 172.899 95.2829 173.016C94.9842 173.133 94.7175 173.192 94.4829 173.192ZM92.3869 168.28L95.2829 168.136C95.4429 168.115 95.5495 168.077 95.6029 168.024C95.6562 167.971 95.6829 167.864 95.6829 167.704C95.6829 167.277 95.5655 166.952 95.3309 166.728C95.1069 166.504 94.7815 166.392 94.3549 166.392C93.8642 166.392 93.4375 166.563 93.0749 166.904C92.7122 167.235 92.4829 167.693 92.3869 168.28ZM98.1508 173.192L98.2148 172.536C98.5241 172.451 98.7374 172.344 98.8548 172.216C98.9828 172.077 99.0574 171.896 99.0788 171.672C99.1001 171.448 99.1108 171.171 99.1108 170.84V162.984C99.1108 162.717 99.0841 162.525 99.0308 162.408C98.9881 162.28 98.8974 162.2 98.7588 162.168C98.6308 162.136 98.4334 162.136 98.1668 162.168L98.1188 162.136L98.1828 161.592C98.5774 161.539 98.9721 161.475 99.3668 161.4C99.7614 161.325 100.156 161.235 100.551 161.128L100.647 161.336C100.604 161.411 100.561 161.656 100.519 162.072C100.476 162.477 100.433 163.016 100.391 163.688C100.359 164.349 100.327 165.101 100.295 165.944C100.263 166.787 100.236 167.677 100.215 168.616C100.204 169.555 100.199 170.493 100.199 171.432C100.199 171.752 100.241 171.981 100.327 172.12C100.412 172.259 100.556 172.328 100.759 172.328L101.319 172.296L101.351 172.36L101.223 173.048C101.052 173.037 100.823 173.027 100.535 173.016C100.257 173.005 100.012 173 99.7988 173C99.6068 173 99.3614 173.016 99.0628 173.048C98.7748 173.091 98.4708 173.139 98.1508 173.192ZM102.057 173.192L102.121 172.536C102.43 172.451 102.644 172.344 102.761 172.216C102.889 172.077 102.964 171.896 102.985 171.672C103.006 171.448 103.017 171.171 103.017 170.84V162.984C103.017 162.717 102.99 162.525 102.937 162.408C102.894 162.28 102.804 162.2 102.665 162.168C102.537 162.136 102.34 162.136 102.073 162.168L102.025 162.136L102.089 161.592C102.484 161.539 102.878 161.475 103.273 161.4C103.668 161.325 104.062 161.235 104.457 161.128L104.553 161.336C104.51 161.411 104.468 161.656 104.425 162.072C104.382 162.477 104.34 163.016 104.297 163.688C104.265 164.349 104.233 165.101 104.201 165.944C104.169 166.787 104.142 167.677 104.121 168.616C104.11 169.555 104.105 170.493 104.105 171.432C104.105 171.752 104.148 171.981 104.233 172.12C104.318 172.259 104.462 172.328 104.665 172.328L105.225 172.296L105.257 172.36L105.129 173.048C104.958 173.037 104.729 173.027 104.441 173.016C104.164 173.005 103.918 173 103.705 173C103.513 173 103.268 173.016 102.969 173.048C102.681 173.091 102.377 173.139 102.057 173.192ZM109.211 173.192C108.603 173.192 108.065 173.043 107.595 172.744C107.126 172.445 106.758 172.029 106.491 171.496C106.235 170.952 106.107 170.333 106.107 169.64C106.107 168.872 106.267 168.184 106.587 167.576C106.918 166.957 107.366 166.472 107.931 166.12C108.497 165.757 109.126 165.576 109.819 165.576C110.427 165.576 110.966 165.725 111.435 166.024C111.905 166.323 112.267 166.739 112.523 167.272C112.79 167.805 112.923 168.424 112.923 169.128C112.923 169.885 112.758 170.573 112.427 171.192C112.107 171.811 111.665 172.301 111.099 172.664C110.545 173.016 109.915 173.192 109.211 173.192ZM109.659 172.408C110.257 172.408 110.731 172.168 111.083 171.688C111.435 171.197 111.611 170.536 111.611 169.704C111.611 169.064 111.515 168.499 111.323 168.008C111.131 167.517 110.865 167.133 110.523 166.856C110.182 166.579 109.787 166.44 109.339 166.44C108.742 166.44 108.267 166.685 107.915 167.176C107.563 167.667 107.387 168.333 107.387 169.176C107.387 169.816 107.483 170.381 107.675 170.872C107.867 171.352 108.134 171.731 108.475 172.008C108.817 172.275 109.211 172.408 109.659 172.408Z" fill="url(#paint1_linear_520_4969)"/>
</g>
<defs>
<filter id="filter0_d_520_4969" x="33" y="27" width="130.5" height="124.247" filterUnits="userSpaceOnUse" color-interpolation-filters="sRGB">
<feFlood flood-opacity="0" result="BackgroundImageFix"/>
<feColorMatrix in="SourceAlpha" type="matrix" values="0 0 0 0 0 0 0 0 0 0 0 0 0 0 0 0 0 0 127 0" result="hardAlpha"/>
<feOffset dy="4"/>
<feGaussianBlur stdDeviation="2"/>
<feComposite in2="hardAlpha" operator="out"/>
<feColorMatrix type="matrix" values="0 0 0 0 0 0 0 0 0 0 0 0 0 0 0 0 0 0 0.25 0"/>
<feBlend mode="normal" in2="BackgroundImageFix" result="effect1_dropShadow_520_4969"/>
<feBlend mode="normal" in="SourceGraphic" in2="effect1_dropShadow_520_4969" result="shape"/>
</filter>
<linearGradient id="paint0_linear_520_4969" x1="98.25" y1="27" x2="98.25" y2="143.247" gradientUnits="userSpaceOnUse">
<stop stop-color="white"/>
<stop offset="0.213215" stop-color="white" stop-opacity="0.58362"/>
<stop offset="0.650327" stop-color="white" stop-opacity="0.23283"/>
<stop offset="1" stop-color="white" stop-opacity="0"/>
</linearGradient>
<linearGradient id="paint1_linear_520_4969" x1="98" y1="156" x2="98" y2="180" gradientUnits="userSpaceOnUse">
<stop stop-color="white"/>
<stop offset="1" stop-color="white" stop-opacity="0"/>
</linearGradient>
<clipPath id="clip0_520_4969">
<rect width="196" height="195.784" fill="white"/>
</clipPath>
</defs>
</svg>
